<?xml version="1.0" standalone="no"?>
<!DOCTYPE svg PUBLIC "-//W3C//DTD SVG 20010904//EN"
 "http://www.w3.org/TR/2001/REC-SVG-20010904/DTD/svg10.dtd">
<svg version="1.0" xmlns="http://www.w3.org/2000/svg"
 width="473.000000pt" height="600.000000pt" viewBox="0 0 473.000000 600.000000"
 preserveAspectRatio="xMidYMid meet">
<metadata>
Created by potrace 1.16, written by Peter Selinger 2001-2019
</metadata>
<g transform="translate(0.000000,600.000000) scale(0.100000,-0.100000)"
fill="#000000" stroke="none">
<path d="M2236 5551 c4 -23 3 -31 -5 -27 -6 4 -9 2 -6 -6 3 -7 -10 -42 -28
-78 -54 -104 -71 -132 -114 -177 -13 -13 -23 -27 -23 -30 0 -9 -153 -153 -162
-153 -4 0 -34 -18 -65 -40 -32 -22 -63 -40 -68 -40 -6 0 -16 -5 -23 -12 -24
-24 -215 -85 -294 -93 -129 -14 -176 -10 -207 16 -15 13 3 -6 39 -42 112 -111
238 -155 417 -146 l101 6 83 -187 c45 -103 94 -214 109 -247 15 -33 48 -109
74 -170 62 -143 122 -280 146 -330 19 -40 38 -83 80 -180 63 -146 72 -155 147
-155 42 0 92 46 109 101 10 31 5 51 -47 194 -33 88 -59 164 -59 168 0 9 35
-11 130 -72 73 -48 190 -164 236 -237 51 -80 98 -184 124 -277 26 -95 36 -258
22 -351 -8 -50 -8 -74 0 -85 5 -9 -5 1 -23 21 -27 30 -49 42 -104 58 -71 20
-165 23 -162 5 1 -5 -6 -10 -15 -10 -10 0 -23 -6 -30 -13 -6 -6 -9 -12 -5 -12
4 0 -6 -26 -22 -57 -43 -83 -47 -125 -21 -219 77 -279 74 -249 34 -282 -18
-15 -66 -46 -107 -70 l-74 -42 -75 19 c-314 80 -547 307 -644 626 -24 79 -28
107 -28 235 -1 179 15 252 89 405 72 147 171 264 305 358 22 15 22 17 6 41 -9
15 -21 26 -26 26 -5 0 -49 -38 -98 -85 -91 -86 -168 -187 -216 -283 -23 -45
-31 -53 -49 -49 -12 3 -181 25 -376 48 -324 40 -354 45 -361 64 -49 129 -68
163 -121 220 -92 98 -199 145 -329 145 -112 0 -252 -62 -330 -147 -30 -33 -13
-24 29 15 26 25 59 43 86 48 15 2 24 1 21 -4 -3 -5 21 0 52 11 74 25 169 33
216 17 62 -20 146 -149 162 -248 5 -35 4 -42 -10 -42 -24 0 -101 -75 -121
-116 -12 -26 -15 -48 -10 -80 6 -42 7 -43 63 -60 31 -9 93 -24 137 -34 101
-22 473 -109 668 -156 l147 -36 0 -56 c0 -93 18 -237 39 -309 25 -91 35 -114
83 -208 l41 -81 -183 -234 c-101 -129 -186 -238 -189 -242 -4 -4 -24 -1 -46 6
-118 41 -269 28 -404 -35 -67 -31 -98 -54 -160 -116 -85 -85 -122 -142 -157
-239 -120 -329 43 -688 355 -784 95 -30 230 -27 329 6 150 50 276 159 351 303
55 107 74 185 73 311 0 105 -20 199 -58 272 -14 27 -13 29 187 248 111 121
202 220 204 220 2 0 36 -16 76 -35 124 -58 224 -78 374 -76 72 1 143 2 158 4
28 2 30 -1 53 -83 13 -47 33 -116 44 -155 11 -38 20 -75 20 -82 0 -7 -25 -50
-57 -95 -121 -178 -186 -368 -208 -613 -14 -142 31 -379 99 -528 240 -528 831
-740 1352 -487 643 312 849 1172 417 1738 -77 101 -191 198 -304 259 l-57 30
17 -31 c9 -17 32 -67 51 -111 29 -66 48 -93 115 -160 218 -217 303 -522 230
-823 -14 -57 -33 -122 -44 -145 -10 -23 -22 -52 -25 -64 -4 -13 -12 -23 -17
-23 -5 0 -9 -6 -9 -13 0 -41 -237 -307 -274 -307 -9 0 -16 -3 -16 -7 0 -15
-123 -80 -210 -112 -112 -41 -177 -50 -330 -47 -80 2 -154 6 -165 9 -11 3 -42
11 -70 17 -81 20 -244 105 -321 167 -40 32 -68 60 -63 63 5 3 -34 19 -86 34
l-94 28 -35 72 c-73 149 -106 297 -106 466 1 398 219 752 576 937 246 128 512
155 784 79 17 -5 20 -4 10 2 -59 38 -280 63 -431 51 -55 -5 -104 -7 -109 -4
-10 6 -180 243 -180 251 0 3 27 42 59 87 205 285 265 640 160 959 -24 74 -27
94 -17 104 7 6 105 91 218 189 113 98 214 187 226 197 20 18 22 18 80 -11 217
-107 463 -69 615 97 182 199 176 516 -15 728 -136 152 -356 219 -547 166 -88
-24 -152 -63 -219 -132 -91 -93 -140 -214 -140 -352 0 -73 17 -178 29 -178 5
0 164 121 247 188 16 13 23 33 28 82 12 125 104 263 215 324 46 25 53 26 98
15 59 -14 162 -68 221 -117 99 -81 178 -233 189 -362 14 -162 -80 -335 -223
-412 l-49 -26 -72 23 c-76 24 -142 62 -206 118 l-37 33 44 40 c39 35 45 46 51
97 17 132 -25 189 -147 203 -49 6 -58 4 -80 -17 -13 -13 -38 -34 -54 -46 -48
-37 -158 -122 -171 -133 -7 -5 -15 -10 -19 -10 -4 0 -14 -7 -23 -15 -9 -8 -28
-26 -43 -40 -15 -14 -31 -25 -35 -25 -4 0 -23 -14 -40 -31 -18 -16 -33 -26
-33 -22 0 4 -4 4 -8 -2 -11 -16 -100 -86 -189 -150 -46 -33 -83 -63 -83 -68 0
-4 -4 -5 -10 -2 -5 3 -10 2 -10 -4 0 -6 -10 -15 -21 -22 -19 -9 -31 -4 -93 39
-127 88 -245 140 -376 162 -84 15 -247 13 -333 -4 -37 -7 -70 -10 -72 -5 -3 4
-66 175 -140 380 l-135 373 24 26 c63 67 123 189 151 307 21 87 16 245 -9 308
-15 39 -16 39 -10 6z m-1125 -2041 c584 -119 541 -108 533 -133 -3 -12 -10
-26 -15 -31 -8 -9 -924 169 -949 184 -19 12 -4 60 18 60 10 0 196 -36 413 -80z
m739 -1057 c0 -5 -25 -35 -55 -68 -30 -32 -55 -61 -55 -63 0 -7 -133 -173
-282 -351 -113 -137 -282 -353 -284 -365 -3 -24 49 -65 109 -86 31 -11 62 -20
69 -19 7 0 58 49 113 108 55 59 108 107 117 107 9 0 14 -4 12 -8 -3 -4 0 -8 6
-8 7 0 10 -6 7 -13 -3 -8 -2 -29 2 -48 10 -47 -11 -152 -46 -225 -26 -57 -128
-192 -146 -193 -5 -1 -6 3 -3 7 3 5 -1 9 -9 9 -8 0 -11 -5 -8 -10 3 -5 1 -12
-4 -16 -5 -3 -26 -37 -47 -75 -21 -38 -59 -90 -85 -116 -41 -42 -52 -48 -102
-54 -71 -9 -182 14 -251 51 -68 37 -147 117 -185 190 -111 207 -72 507 87 685
l47 53 109 0 c81 0 120 -5 152 -18 38 -15 46 -16 64 -3 11 8 27 12 35 9 8 -3
19 0 24 8 7 12 9 12 9 0 0 -11 3 -11 17 0 9 8 -8 -20 -37 -61 -65 -90 -93
-159 -84 -204 3 -19 12 -33 20 -33 8 0 14 4 14 8 0 4 6 14 13 21 6 7 39 47 72
88 32 41 67 81 77 88 10 7 18 19 18 25 0 7 18 31 39 55 22 24 48 55 58 69 10
14 23 30 28 37 6 6 39 47 74 91 35 44 69 85 76 90 6 6 24 28 40 50 30 39 68
86 93 111 6 7 12 15 12 18 0 4 12 20 27 36 25 29 43 38 43 23z"/>
<path d="M22 3540 c-4 -173 91 -351 230 -433 121 -70 281 -76 410 -15 40 20
94 54 121 78 51 46 112 126 100 133 -5 2 -53 17 -108 32 -55 16 -110 37 -122
48 -21 19 -22 19 -17 0 6 -23 -53 -81 -115 -113 -99 -50 -234 -65 -285 -31
-17 11 -33 18 -36 16 -4 -2 -7 2 -7 9 0 15 -55 87 -62 80 -3 -2 1 -10 7 -16
15 -15 16 -38 1 -38 -5 0 -7 5 -4 10 3 6 2 10 -4 10 -6 0 -21 11 -34 24 -14
14 -27 22 -30 19 -3 -3 -3 4 0 16 3 12 1 21 -5 21 -13 0 -22 39 -32 134 l-7
71 -1 -55z"/>
</g>
</svg>
