<?xml version="1.0" standalone="no"?>
<!DOCTYPE svg PUBLIC "-//W3C//DTD SVG 20010904//EN"
 "http://www.w3.org/TR/2001/REC-SVG-20010904/DTD/svg10.dtd">
<svg version="1.0" xmlns="http://www.w3.org/2000/svg"
 width="728.000000pt" height="858.000000pt" viewBox="0 0 728.000000 858.000000"
 preserveAspectRatio="xMidYMid meet">

<g transform="translate(0.000000,858.000000) scale(0.100000,-0.100000)"
fill="#000000" stroke="none">
<path d="M3320 8569 c-423 -44 -878 -152 -1137 -270 -27 -12 -68 -30 -92 -41
-134 -57 -368 -208 -539 -345 -219 -178 -491 -513 -666 -823 -111 -195 -209
-453 -250 -660 -59 -292 -57 -521 9 -890 23 -126 16 -340 -14 -454 -47 -178
-122 -322 -241 -467 -265 -322 -385 -527 -385 -658 0 -52 1 -54 55 -102 87
-78 184 -141 331 -217 166 -84 202 -110 230 -169 34 -70 23 -135 -50 -285 -80
-166 -101 -220 -107 -287 -8 -76 -1 -82 154 -142 22 -9 22 -9 -21 -68 -81
-110 -84 -146 -16 -209 22 -20 52 -59 67 -87 l27 -50 -5 -185 c-2 -102 -4
-248 -5 -325 0 -134 1 -143 28 -197 46 -93 137 -160 278 -203 95 -29 321 -31
564 -5 116 13 269 23 340 23 115 0 139 -3 209 -27 109 -37 156 -67 229 -146
145 -156 266 -456 307 -760 6 -47 18 -119 25 -160 8 -41 22 -126 31 -188 10
-62 26 -126 36 -142 l18 -30 1751 0 c1664 0 1751 1 1744 18 -252 631 -369
1189 -335 1601 34 412 114 591 610 1366 318 496 348 546 426 705 121 248 225
609 293 1025 43 261 55 419 55 730 1 307 -9 452 -45 682 -71 454 -243 854
-535 1241 -127 169 -407 449 -579 579 -430 325 -968 532 -1588 613 -142 18
-208 20 -640 19 -265 -1 -520 -6 -567 -10z m723 -691 c4 -18 9 -61 13 -95 l6
-61 64 -16 c35 -9 70 -16 78 -16 8 0 39 31 68 69 29 39 56 70 59 70 16 2 189
-102 189 -114 0 -7 -14 -45 -32 -84 -36 -83 -34 -90 38 -155 l44 -39 85 36 85
36 14 -22 c7 -12 33 -55 56 -96 l43 -75 -39 -33 c-21 -18 -54 -43 -71 -56 -38
-25 -39 -36 -16 -122 19 -71 2 -62 151 -80 l52 -7 0 -113 0 -114 -57 -6 c-127
-15 -125 -14 -145 -80 -10 -33 -18 -67 -18 -76 0 -9 32 -40 70 -70 39 -29 70
-57 70 -62 0 -16 -95 -179 -107 -184 -6 -2 -45 10 -87 27 -42 18 -80 30 -85
28 -5 -1 -32 -25 -61 -52 l-52 -49 36 -85 c19 -47 33 -88 31 -92 -2 -4 -46
-31 -96 -60 -78 -45 -94 -51 -103 -39 -21 28 -109 139 -110 139 -1 0 -35 -11
-76 -23 l-75 -24 -13 -89 c-8 -49 -15 -90 -17 -92 -1 -2 -52 -3 -111 -4 l-109
-1 -6 39 c-4 21 -10 64 -13 95 l-7 57 -64 16 c-35 9 -71 16 -78 16 -8 0 -38
-31 -66 -70 -28 -38 -55 -70 -61 -70 -15 0 -190 101 -190 110 0 9 46 117 60
142 6 10 10 20 10 22 0 6 -30 37 -81 84 -35 32 -36 32 -73 17 -20 -9 -59 -24
-86 -35 l-48 -19 -57 97 c-45 78 -53 98 -43 107 127 96 140 108 133 129 -4 11
-13 46 -22 77 l-15 57 -51 6 c-29 4 -71 9 -94 12 l-43 6 0 114 c0 107 1 114
20 114 10 0 53 5 93 11 l74 11 16 57 c9 31 19 64 22 73 6 16 -27 47 -129 121
-19 14 -17 18 35 111 30 53 57 96 61 96 3 0 43 -16 89 -35 l83 -36 55 55 55
55 -36 91 -36 90 46 27 c26 14 69 39 95 55 26 16 52 26 57 23 5 -3 33 -37 61
-76 36 -47 57 -68 67 -64 8 3 43 13 78 21 70 18 66 12 80 142 l7 62 112 0 113
0 5 -32z m1537 -1750 c8 -65 20 -121 25 -126 17 -15 186 -55 194 -46 4 5 38
49 76 97 47 60 73 86 84 82 19 -7 224 -125 233 -133 6 -7 -18 -71 -63 -169
-10 -24 -19 -48 -19 -55 0 -15 130 -148 145 -148 6 0 57 20 114 45 57 25 105
45 107 45 5 0 144 -239 144 -248 0 -5 -39 -40 -87 -77 -49 -38 -91 -71 -96
-75 -5 -5 37 -196 47 -207 0 -1 39 -6 86 -12 47 -6 102 -14 123 -17 l38 -6 -3
-146 -3 -147 -119 -15 c-66 -8 -121 -19 -123 -25 -2 -5 -14 -49 -27 -97 l-24
-88 80 -62 c44 -35 89 -70 99 -78 18 -14 16 -20 -52 -140 -39 -69 -72 -126
-73 -127 -1 -1 -49 18 -106 43 -58 24 -112 44 -121 44 -18 0 -152 -136 -146
-148 21 -34 87 -207 84 -216 -4 -10 -75 -54 -204 -127 -23 -13 -43 -21 -45
-19 -2 3 -34 44 -71 92 -37 48 -71 90 -76 93 -9 5 -189 -39 -199 -50 -7 -7
-32 -171 -32 -212 l0 -33 -149 0 -148 0 -17 122 c-9 67 -17 122 -18 124 -2 1
-46 13 -98 28 -89 24 -96 25 -108 9 -7 -10 -41 -54 -77 -100 l-64 -82 -113 65
c-62 35 -120 68 -128 73 -12 8 -7 27 33 119 26 60 45 115 42 123 -7 15 -127
121 -145 127 -6 2 -58 -15 -117 -39 -86 -34 -107 -40 -114 -28 -97 162 -135
236 -126 247 5 6 47 40 93 74 46 34 84 68 84 75 0 28 -42 179 -53 190 -7 6
-61 18 -122 25 l-110 13 -3 147 -3 147 33 6 c18 3 68 9 111 14 43 5 84 14 91
20 7 6 23 49 36 96 26 101 32 89 -89 180 -44 33 -80 63 -81 66 0 3 29 57 65
120 36 63 66 119 68 124 3 8 123 -36 224 -81 14 -7 153 125 153 144 0 7 -20
61 -45 119 -24 59 -44 107 -42 108 11 9 247 145 250 145 2 0 37 -43 76 -95 41
-54 80 -95 89 -95 19 1 181 46 188 52 2 3 11 55 19 117 8 62 17 117 21 122 3
6 65 8 147 7 l142 -3 15 -117z m-2238 -718 c8 -73 18 -85 80 -95 40 -7 42 -6
88 46 l46 53 70 -39 c38 -21 70 -39 72 -40 2 -2 -9 -33 -24 -70 l-27 -67 41
-41 41 -41 67 27 c36 16 67 27 69 25 1 -2 20 -34 43 -73 l42 -70 -33 -25 c-85
-66 -81 -61 -67 -121 15 -61 22 -69 66 -69 17 0 46 -3 63 -6 l31 -6 0 -84 0
-83 -47 -6 c-103 -14 -99 -11 -113 -72 l-12 -57 28 -20 c16 -12 41 -32 56 -46
l28 -25 -40 -72 -41 -71 -59 24 c-33 13 -66 24 -73 24 -7 0 -30 -17 -50 -38
l-37 -38 27 -67 c14 -37 24 -68 22 -70 -19 -14 -132 -77 -139 -77 -4 0 -26 24
-49 54 l-42 54 -58 -15 -59 -15 -9 -72 -8 -71 -85 0 -85 0 -9 72 -9 71 -43 11
c-66 17 -76 14 -117 -39 -21 -28 -43 -50 -49 -50 -16 0 -138 71 -138 81 0 4
11 33 25 64 13 31 22 61 19 68 -3 7 -23 27 -44 45 l-38 33 -61 -26 c-33 -14
-62 -25 -64 -25 -2 0 -23 32 -47 72 -48 81 -52 64 34 133 l38 30 -14 55 c-15
60 -15 59 -120 75 l-38 6 0 84 0 84 48 6 c91 12 89 11 107 71 10 34 13 59 7
63 -33 22 -101 77 -102 83 0 6 66 125 76 137 2 2 35 -7 74 -20 l70 -23 35 34
c19 19 35 41 35 51 0 9 -11 42 -25 72 l-24 56 70 41 c38 23 74 40 78 38 5 -2
27 -26 50 -55 l40 -51 50 13 c27 7 54 15 59 19 5 3 13 34 16 68 4 34 10 66 13
71 2 4 41 6 86 5 l82 -3 7 -65z"/>
<path d="M3810 7356 c-77 -22 -152 -66 -211 -125 -229 -229 -165 -603 126
-747 70 -34 87 -39 172 -42 160 -7 283 42 381 153 227 258 100 673 -233 760
-70 18 -172 18 -235 1z"/>
<path d="M5279 5525 c-213 -54 -379 -213 -445 -424 -25 -78 -29 -208 -10 -292
82 -370 448 -574 804 -449 124 44 242 142 315 262 196 324 37 759 -324 885
-92 32 -253 41 -340 18z"/>
<path d="M3156 5055 c-58 -16 -148 -76 -181 -120 -14 -17 -36 -57 -51 -89 -24
-52 -26 -67 -22 -145 5 -102 29 -161 95 -232 66 -70 146 -103 253 -104 71 0
94 4 141 26 120 56 198 166 207 290 6 87 -11 155 -57 226 -81 124 -247 188
-385 148z"/>
</g>
</svg>
